<mxfile host="app.diagrams.net" modified="2023-05-05T18:50:45.607Z" agent="Mozilla/5.0 (Windows NT 10.0; Win64; x64) AppleWebKit/537.36 (KHTML, like Gecko) Chrome/113.0.0.0 Safari/537.36" etag="wZAXJu4eT51_92NwBLZ4" version="21.2.9" type="device">
  <diagram name="Page-1" id="80xlIoIL_Tgqml4ueEH9">
    <mxGraphModel dx="2993" dy="2357" grid="1" gridSize="10" guides="1" tooltips="1" connect="1" arrows="1" fold="1" page="1" pageScale="1" pageWidth="827" pageHeight="1169" math="0" shadow="0">
      <root>
        <mxCell id="0" />
        <mxCell id="1" parent="0" />
        <mxCell id="7zhEitKWnOMPBY1awrK7-49" style="edgeStyle=orthogonalEdgeStyle;rounded=0;orthogonalLoop=1;jettySize=auto;html=1;entryX=0.5;entryY=0;entryDx=0;entryDy=0;endArrow=none;endFill=0;" parent="1" source="hktTCCk2dDebHr9fmQuZ-1" target="hktTCCk2dDebHr9fmQuZ-5" edge="1">
          <mxGeometry relative="1" as="geometry">
            <Array as="points">
              <mxPoint x="70" y="240" />
            </Array>
          </mxGeometry>
        </mxCell>
        <mxCell id="7zhEitKWnOMPBY1awrK7-50" value="1..*" style="edgeLabel;html=1;align=center;verticalAlign=middle;resizable=0;points=[];" parent="7zhEitKWnOMPBY1awrK7-49" vertex="1" connectable="0">
          <mxGeometry x="0.7305" y="-1" relative="1" as="geometry">
            <mxPoint x="-19" y="35" as="offset" />
          </mxGeometry>
        </mxCell>
        <mxCell id="7zhEitKWnOMPBY1awrK7-51" value="0..*" style="edgeLabel;html=1;align=center;verticalAlign=middle;resizable=0;points=[];" parent="7zhEitKWnOMPBY1awrK7-49" vertex="1" connectable="0">
          <mxGeometry x="-0.7695" relative="1" as="geometry">
            <mxPoint x="30" y="-12" as="offset" />
          </mxGeometry>
        </mxCell>
        <mxCell id="Ep67FyL13l04OU5eBn9L-26" style="edgeStyle=orthogonalEdgeStyle;rounded=0;orthogonalLoop=1;jettySize=auto;html=1;entryX=0;entryY=0.5;entryDx=0;entryDy=0;endArrow=none;endFill=0;" parent="1" source="hktTCCk2dDebHr9fmQuZ-1" target="Pm2yHPC7wLH_92ZBqZMf-32" edge="1">
          <mxGeometry relative="1" as="geometry">
            <Array as="points" />
            <mxPoint x="230" y="76" as="sourcePoint" />
          </mxGeometry>
        </mxCell>
        <mxCell id="Ep67FyL13l04OU5eBn9L-43" value="1..*" style="edgeLabel;html=1;align=center;verticalAlign=middle;resizable=0;points=[];" parent="Ep67FyL13l04OU5eBn9L-26" vertex="1" connectable="0">
          <mxGeometry x="-0.9664" y="-1" relative="1" as="geometry">
            <mxPoint x="16" y="-17" as="offset" />
          </mxGeometry>
        </mxCell>
        <mxCell id="Ep67FyL13l04OU5eBn9L-44" value="1" style="edgeLabel;html=1;align=center;verticalAlign=middle;resizable=0;points=[];" parent="Ep67FyL13l04OU5eBn9L-26" vertex="1" connectable="0">
          <mxGeometry x="0.959" y="1" relative="1" as="geometry">
            <mxPoint x="-11" y="-11" as="offset" />
          </mxGeometry>
        </mxCell>
        <mxCell id="hktTCCk2dDebHr9fmQuZ-1" value="Environment/Platform" style="swimlane;fontStyle=0;childLayout=stackLayout;horizontal=1;startSize=26;fillColor=none;horizontalStack=0;resizeParent=1;resizeParentMax=0;resizeLast=0;collapsible=1;marginBottom=0;" parent="1" vertex="1">
          <mxGeometry x="-5" y="43" width="140" height="78" as="geometry" />
        </mxCell>
        <mxCell id="hktTCCk2dDebHr9fmQuZ-3" value="shortDescription: string" style="text;strokeColor=none;fillColor=none;align=left;verticalAlign=top;spacingLeft=4;spacingRight=4;overflow=hidden;rotatable=0;points=[[0,0.5],[1,0.5]];portConstraint=eastwest;" parent="hktTCCk2dDebHr9fmQuZ-1" vertex="1">
          <mxGeometry y="26" width="140" height="26" as="geometry" />
        </mxCell>
        <mxCell id="hktTCCk2dDebHr9fmQuZ-51" value="longDescription: string" style="text;strokeColor=none;fillColor=none;align=left;verticalAlign=top;spacingLeft=4;spacingRight=4;overflow=hidden;rotatable=0;points=[[0,0.5],[1,0.5]];portConstraint=eastwest;" parent="hktTCCk2dDebHr9fmQuZ-1" vertex="1">
          <mxGeometry y="52" width="140" height="26" as="geometry" />
        </mxCell>
        <mxCell id="7zhEitKWnOMPBY1awrK7-36" style="edgeStyle=orthogonalEdgeStyle;rounded=0;orthogonalLoop=1;jettySize=auto;html=1;entryX=0.5;entryY=0;entryDx=0;entryDy=0;endArrow=none;endFill=0;" parent="1" source="hktTCCk2dDebHr9fmQuZ-5" target="7zhEitKWnOMPBY1awrK7-45" edge="1">
          <mxGeometry relative="1" as="geometry">
            <mxPoint x="350" y="803" as="targetPoint" />
            <Array as="points">
              <mxPoint x="70" y="720" />
              <mxPoint x="70" y="720" />
            </Array>
          </mxGeometry>
        </mxCell>
        <mxCell id="7zhEitKWnOMPBY1awrK7-39" value="0..*" style="edgeLabel;html=1;align=center;verticalAlign=middle;resizable=0;points=[];" parent="7zhEitKWnOMPBY1awrK7-36" vertex="1" connectable="0">
          <mxGeometry x="-0.9061" y="3" relative="1" as="geometry">
            <mxPoint x="-23" y="1" as="offset" />
          </mxGeometry>
        </mxCell>
        <mxCell id="7zhEitKWnOMPBY1awrK7-42" value="1..*" style="edgeLabel;html=1;align=center;verticalAlign=middle;resizable=0;points=[];" parent="7zhEitKWnOMPBY1awrK7-36" vertex="1" connectable="0">
          <mxGeometry x="0.892" y="-2" relative="1" as="geometry">
            <mxPoint x="-18" y="-9" as="offset" />
          </mxGeometry>
        </mxCell>
        <mxCell id="hktTCCk2dDebHr9fmQuZ-5" value="Testplan/Feature" style="swimlane;fontStyle=0;childLayout=stackLayout;horizontal=1;startSize=26;fillColor=none;horizontalStack=0;resizeParent=1;resizeParentMax=0;resizeLast=0;collapsible=1;marginBottom=0;" parent="1" vertex="1">
          <mxGeometry x="-20" y="431" width="180" height="104" as="geometry" />
        </mxCell>
        <mxCell id="hktTCCk2dDebHr9fmQuZ-7" value="shortDescription: string" style="text;strokeColor=none;fillColor=none;align=left;verticalAlign=top;spacingLeft=4;spacingRight=4;overflow=hidden;rotatable=0;points=[[0,0.5],[1,0.5]];portConstraint=eastwest;" parent="hktTCCk2dDebHr9fmQuZ-5" vertex="1">
          <mxGeometry y="26" width="180" height="26" as="geometry" />
        </mxCell>
        <mxCell id="hktTCCk2dDebHr9fmQuZ-8" value="longDescription: string" style="text;strokeColor=none;fillColor=none;align=left;verticalAlign=top;spacingLeft=4;spacingRight=4;overflow=hidden;rotatable=0;points=[[0,0.5],[1,0.5]];portConstraint=eastwest;" parent="hktTCCk2dDebHr9fmQuZ-5" vertex="1">
          <mxGeometry y="52" width="180" height="26" as="geometry" />
        </mxCell>
        <mxCell id="kd0ojpbWD5Cb26-H-TES-4" value="referenceLink: string" style="text;strokeColor=none;fillColor=none;align=left;verticalAlign=top;spacingLeft=4;spacingRight=4;overflow=hidden;rotatable=0;points=[[0,0.5],[1,0.5]];portConstraint=eastwest;" parent="hktTCCk2dDebHr9fmQuZ-5" vertex="1">
          <mxGeometry y="78" width="180" height="26" as="geometry" />
        </mxCell>
        <mxCell id="7zhEitKWnOMPBY1awrK7-37" style="edgeStyle=orthogonalEdgeStyle;rounded=0;orthogonalLoop=1;jettySize=auto;html=1;exitX=0.5;exitY=1;exitDx=0;exitDy=0;entryX=0.5;entryY=0;entryDx=0;entryDy=0;endArrow=none;endFill=0;" parent="1" source="hktTCCk2dDebHr9fmQuZ-11" target="hktTCCk2dDebHr9fmQuZ-44" edge="1">
          <mxGeometry relative="1" as="geometry" />
        </mxCell>
        <mxCell id="7zhEitKWnOMPBY1awrK7-40" value="0..*" style="edgeLabel;html=1;align=center;verticalAlign=middle;resizable=0;points=[];" parent="7zhEitKWnOMPBY1awrK7-37" vertex="1" connectable="0">
          <mxGeometry x="-0.785" y="-1" relative="1" as="geometry">
            <mxPoint x="-15" as="offset" />
          </mxGeometry>
        </mxCell>
        <mxCell id="7zhEitKWnOMPBY1awrK7-43" value="1..*" style="edgeLabel;html=1;align=center;verticalAlign=middle;resizable=0;points=[];" parent="7zhEitKWnOMPBY1awrK7-37" vertex="1" connectable="0">
          <mxGeometry x="0.6288" relative="1" as="geometry">
            <mxPoint x="-16" y="9" as="offset" />
          </mxGeometry>
        </mxCell>
        <mxCell id="hktTCCk2dDebHr9fmQuZ-11" value="Testcase" style="swimlane;fontStyle=0;childLayout=stackLayout;horizontal=1;startSize=26;fillColor=none;horizontalStack=0;resizeParent=1;resizeParentMax=0;resizeLast=0;collapsible=1;marginBottom=0;" parent="1" vertex="1">
          <mxGeometry x="342.59" y="431" width="180" height="182" as="geometry" />
        </mxCell>
        <mxCell id="hktTCCk2dDebHr9fmQuZ-13" value="shortDescription: string" style="text;strokeColor=none;fillColor=none;align=left;verticalAlign=top;spacingLeft=4;spacingRight=4;overflow=hidden;rotatable=0;points=[[0,0.5],[1,0.5]];portConstraint=eastwest;" parent="hktTCCk2dDebHr9fmQuZ-11" vertex="1">
          <mxGeometry y="26" width="180" height="26" as="geometry" />
        </mxCell>
        <mxCell id="hktTCCk2dDebHr9fmQuZ-14" value="longDescription: string" style="text;strokeColor=none;fillColor=none;align=left;verticalAlign=top;spacingLeft=4;spacingRight=4;overflow=hidden;rotatable=0;points=[[0,0.5],[1,0.5]];portConstraint=eastwest;" parent="hktTCCk2dDebHr9fmQuZ-11" vertex="1">
          <mxGeometry y="52" width="180" height="26" as="geometry" />
        </mxCell>
        <mxCell id="hktTCCk2dDebHr9fmQuZ-15" value="author: string/User" style="text;strokeColor=none;fillColor=none;align=left;verticalAlign=top;spacingLeft=4;spacingRight=4;overflow=hidden;rotatable=0;points=[[0,0.5],[1,0.5]];portConstraint=eastwest;" parent="hktTCCk2dDebHr9fmQuZ-11" vertex="1">
          <mxGeometry y="78" width="180" height="26" as="geometry" />
        </mxCell>
        <mxCell id="hktTCCk2dDebHr9fmQuZ-23" value="creatDate: DateTime" style="text;strokeColor=none;fillColor=none;align=left;verticalAlign=top;spacingLeft=4;spacingRight=4;overflow=hidden;rotatable=0;points=[[0,0.5],[1,0.5]];portConstraint=eastwest;" parent="hktTCCk2dDebHr9fmQuZ-11" vertex="1">
          <mxGeometry y="104" width="180" height="26" as="geometry" />
        </mxCell>
        <mxCell id="hktTCCk2dDebHr9fmQuZ-48" value="priority: string" style="text;strokeColor=none;fillColor=none;align=left;verticalAlign=top;spacingLeft=4;spacingRight=4;overflow=hidden;rotatable=0;points=[[0,0.5],[1,0.5]];portConstraint=eastwest;" parent="hktTCCk2dDebHr9fmQuZ-11" vertex="1">
          <mxGeometry y="130" width="180" height="26" as="geometry" />
        </mxCell>
        <mxCell id="7zhEitKWnOMPBY1awrK7-33" value="referenceLink: string" style="text;strokeColor=none;fillColor=none;align=left;verticalAlign=top;spacingLeft=4;spacingRight=4;overflow=hidden;rotatable=0;points=[[0,0.5],[1,0.5]];portConstraint=eastwest;" parent="hktTCCk2dDebHr9fmQuZ-11" vertex="1">
          <mxGeometry y="156" width="180" height="26" as="geometry" />
        </mxCell>
        <mxCell id="hktTCCk2dDebHr9fmQuZ-16" style="edgeStyle=orthogonalEdgeStyle;rounded=0;orthogonalLoop=1;jettySize=auto;html=1;exitX=1;exitY=0.5;exitDx=0;exitDy=0;entryX=0;entryY=0.5;entryDx=0;entryDy=0;endArrow=none;endFill=0;" parent="1" source="hktTCCk2dDebHr9fmQuZ-7" target="hktTCCk2dDebHr9fmQuZ-13" edge="1">
          <mxGeometry relative="1" as="geometry" />
        </mxCell>
        <mxCell id="hktTCCk2dDebHr9fmQuZ-25" value="1..*" style="edgeLabel;html=1;align=center;verticalAlign=middle;resizable=0;points=[];" parent="hktTCCk2dDebHr9fmQuZ-16" vertex="1" connectable="0">
          <mxGeometry x="-0.7349" y="1" relative="1" as="geometry">
            <mxPoint y="-12" as="offset" />
          </mxGeometry>
        </mxCell>
        <mxCell id="hktTCCk2dDebHr9fmQuZ-26" value="1..*" style="edgeLabel;html=1;align=center;verticalAlign=middle;resizable=0;points=[];" parent="hktTCCk2dDebHr9fmQuZ-16" vertex="1" connectable="0">
          <mxGeometry x="0.7222" y="1" relative="1" as="geometry">
            <mxPoint y="-12" as="offset" />
          </mxGeometry>
        </mxCell>
        <mxCell id="Ep67FyL13l04OU5eBn9L-8" style="edgeStyle=orthogonalEdgeStyle;rounded=0;orthogonalLoop=1;jettySize=auto;html=1;entryX=0.5;entryY=0;entryDx=0;entryDy=0;endArrow=none;endFill=0;" parent="1" source="hktTCCk2dDebHr9fmQuZ-17" target="7zhEitKWnOMPBY1awrK7-47" edge="1">
          <mxGeometry relative="1" as="geometry" />
        </mxCell>
        <mxCell id="Ep67FyL13l04OU5eBn9L-9" value="0..*" style="edgeLabel;html=1;align=center;verticalAlign=middle;resizable=0;points=[];" parent="Ep67FyL13l04OU5eBn9L-8" vertex="1" connectable="0">
          <mxGeometry x="-0.8547" relative="1" as="geometry">
            <mxPoint x="-20" y="6" as="offset" />
          </mxGeometry>
        </mxCell>
        <mxCell id="Ep67FyL13l04OU5eBn9L-10" value="1..*" style="edgeLabel;html=1;align=center;verticalAlign=middle;resizable=0;points=[];" parent="Ep67FyL13l04OU5eBn9L-8" vertex="1" connectable="0">
          <mxGeometry x="0.8899" relative="1" as="geometry">
            <mxPoint x="-19" y="-10" as="offset" />
          </mxGeometry>
        </mxCell>
        <mxCell id="hktTCCk2dDebHr9fmQuZ-17" value="TestImplementation" style="swimlane;fontStyle=0;childLayout=stackLayout;horizontal=1;startSize=26;fillColor=none;horizontalStack=0;resizeParent=1;resizeParentMax=0;resizeLast=0;collapsible=1;marginBottom=0;" parent="1" vertex="1">
          <mxGeometry x="670" y="430" width="180" height="208" as="geometry" />
        </mxCell>
        <mxCell id="hktTCCk2dDebHr9fmQuZ-19" value="shortDescription: string" style="text;strokeColor=none;fillColor=none;align=left;verticalAlign=top;spacingLeft=4;spacingRight=4;overflow=hidden;rotatable=0;points=[[0,0.5],[1,0.5]];portConstraint=eastwest;" parent="hktTCCk2dDebHr9fmQuZ-17" vertex="1">
          <mxGeometry y="26" width="180" height="26" as="geometry" />
        </mxCell>
        <mxCell id="hktTCCk2dDebHr9fmQuZ-20" value="longDescription: string" style="text;strokeColor=none;fillColor=none;align=left;verticalAlign=top;spacingLeft=4;spacingRight=4;overflow=hidden;rotatable=0;points=[[0,0.5],[1,0.5]];portConstraint=eastwest;" parent="hktTCCk2dDebHr9fmQuZ-17" vertex="1">
          <mxGeometry y="52" width="180" height="26" as="geometry" />
        </mxCell>
        <mxCell id="kd0ojpbWD5Cb26-H-TES-3" value="author: string/User" style="text;strokeColor=none;fillColor=none;align=left;verticalAlign=top;spacingLeft=4;spacingRight=4;overflow=hidden;rotatable=0;points=[[0,0.5],[1,0.5]];portConstraint=eastwest;" parent="hktTCCk2dDebHr9fmQuZ-17" vertex="1">
          <mxGeometry y="78" width="180" height="26" as="geometry" />
        </mxCell>
        <mxCell id="7zhEitKWnOMPBY1awrK7-35" value="build: string" style="text;strokeColor=none;fillColor=none;align=left;verticalAlign=top;spacingLeft=4;spacingRight=4;overflow=hidden;rotatable=0;points=[[0,0.5],[1,0.5]];portConstraint=eastwest;" parent="hktTCCk2dDebHr9fmQuZ-17" vertex="1">
          <mxGeometry y="104" width="180" height="26" as="geometry" />
        </mxCell>
        <mxCell id="7zhEitKWnOMPBY1awrK7-24" value="isAutomaticRun: bool" style="text;strokeColor=none;fillColor=none;align=left;verticalAlign=top;spacingLeft=4;spacingRight=4;overflow=hidden;rotatable=0;points=[[0,0.5],[1,0.5]];portConstraint=eastwest;" parent="hktTCCk2dDebHr9fmQuZ-17" vertex="1">
          <mxGeometry y="130" width="180" height="26" as="geometry" />
        </mxCell>
        <mxCell id="Pm2yHPC7wLH_92ZBqZMf-20" value="lastTestRunId: string" style="text;strokeColor=none;fillColor=none;align=left;verticalAlign=top;spacingLeft=4;spacingRight=4;overflow=hidden;rotatable=0;points=[[0,0.5],[1,0.5]];portConstraint=eastwest;" parent="hktTCCk2dDebHr9fmQuZ-17" vertex="1">
          <mxGeometry y="156" width="180" height="26" as="geometry" />
        </mxCell>
        <mxCell id="Pm2yHPC7wLH_92ZBqZMf-21" value="success: bool" style="text;strokeColor=none;fillColor=none;align=left;verticalAlign=top;spacingLeft=4;spacingRight=4;overflow=hidden;rotatable=0;points=[[0,0.5],[1,0.5]];portConstraint=eastwest;" parent="hktTCCk2dDebHr9fmQuZ-17" vertex="1">
          <mxGeometry y="182" width="180" height="26" as="geometry" />
        </mxCell>
        <mxCell id="hktTCCk2dDebHr9fmQuZ-24" style="edgeStyle=orthogonalEdgeStyle;rounded=0;orthogonalLoop=1;jettySize=auto;html=1;entryX=0;entryY=0.5;entryDx=0;entryDy=0;endArrow=none;endFill=0;" parent="1" target="hktTCCk2dDebHr9fmQuZ-20" edge="1">
          <mxGeometry relative="1" as="geometry">
            <mxPoint x="520" y="521" as="sourcePoint" />
            <mxPoint x="370" y="505" as="targetPoint" />
            <Array as="points">
              <mxPoint x="520" y="520" />
              <mxPoint x="670" y="520" />
            </Array>
          </mxGeometry>
        </mxCell>
        <mxCell id="hktTCCk2dDebHr9fmQuZ-68" value="1..*" style="edgeLabel;html=1;align=center;verticalAlign=middle;resizable=0;points=[];" parent="hktTCCk2dDebHr9fmQuZ-24" vertex="1" connectable="0">
          <mxGeometry x="-0.7232" y="2" relative="1" as="geometry">
            <mxPoint x="2" y="15" as="offset" />
          </mxGeometry>
        </mxCell>
        <mxCell id="hktTCCk2dDebHr9fmQuZ-69" value="1" style="edgeLabel;html=1;align=center;verticalAlign=middle;resizable=0;points=[];" parent="hktTCCk2dDebHr9fmQuZ-24" vertex="1" connectable="0">
          <mxGeometry x="0.7531" y="2" relative="1" as="geometry">
            <mxPoint x="-8" y="12" as="offset" />
          </mxGeometry>
        </mxCell>
        <mxCell id="hktTCCk2dDebHr9fmQuZ-44" value="TestcaseTag" style="swimlane;fontStyle=0;childLayout=stackLayout;horizontal=1;startSize=26;fillColor=none;horizontalStack=0;resizeParent=1;resizeParentMax=0;resizeLast=0;collapsible=1;marginBottom=0;" parent="1" vertex="1">
          <mxGeometry x="362.59" y="728.14" width="140" height="52" as="geometry" />
        </mxCell>
        <mxCell id="hktTCCk2dDebHr9fmQuZ-45" value="name: string" style="text;strokeColor=none;fillColor=none;align=left;verticalAlign=top;spacingLeft=4;spacingRight=4;overflow=hidden;rotatable=0;points=[[0,0.5],[1,0.5]];portConstraint=eastwest;" parent="hktTCCk2dDebHr9fmQuZ-44" vertex="1">
          <mxGeometry y="26" width="140" height="26" as="geometry" />
        </mxCell>
        <mxCell id="hktTCCk2dDebHr9fmQuZ-58" value="User" style="swimlane;fontStyle=0;childLayout=stackLayout;horizontal=1;startSize=26;fillColor=none;horizontalStack=0;resizeParent=1;resizeParentMax=0;resizeLast=0;collapsible=1;marginBottom=0;" parent="1" vertex="1">
          <mxGeometry x="1138.75" y="-241.5" width="140" height="104" as="geometry" />
        </mxCell>
        <mxCell id="hktTCCk2dDebHr9fmQuZ-59" value="username: string" style="text;strokeColor=none;fillColor=none;align=left;verticalAlign=top;spacingLeft=4;spacingRight=4;overflow=hidden;rotatable=0;points=[[0,0.5],[1,0.5]];portConstraint=eastwest;" parent="hktTCCk2dDebHr9fmQuZ-58" vertex="1">
          <mxGeometry y="26" width="140" height="26" as="geometry" />
        </mxCell>
        <mxCell id="hktTCCk2dDebHr9fmQuZ-60" value="email: string" style="text;strokeColor=none;fillColor=none;align=left;verticalAlign=top;spacingLeft=4;spacingRight=4;overflow=hidden;rotatable=0;points=[[0,0.5],[1,0.5]];portConstraint=eastwest;" parent="hktTCCk2dDebHr9fmQuZ-58" vertex="1">
          <mxGeometry y="52" width="140" height="26" as="geometry" />
        </mxCell>
        <mxCell id="hktTCCk2dDebHr9fmQuZ-61" value="+ field: type" style="text;strokeColor=none;fillColor=none;align=left;verticalAlign=top;spacingLeft=4;spacingRight=4;overflow=hidden;rotatable=0;points=[[0,0.5],[1,0.5]];portConstraint=eastwest;" parent="hktTCCk2dDebHr9fmQuZ-58" vertex="1">
          <mxGeometry y="78" width="140" height="26" as="geometry" />
        </mxCell>
        <mxCell id="7zhEitKWnOMPBY1awrK7-1" value="Maybe use our user management?" style="text;html=1;strokeColor=none;fillColor=none;align=center;verticalAlign=middle;whiteSpace=wrap;rounded=0;" parent="1" vertex="1">
          <mxGeometry x="1178.75" y="-281.5" width="60" height="30" as="geometry" />
        </mxCell>
        <mxCell id="7zhEitKWnOMPBY1awrK7-23" value="TestImplementation database id will be visible for user at the frontend so the tester can configure that id in automise -&amp;gt; automise will send this id with the result" style="text;html=1;strokeColor=none;fillColor=none;align=center;verticalAlign=middle;whiteSpace=wrap;rounded=0;" parent="1" vertex="1">
          <mxGeometry x="560" y="375.5" width="440" height="30" as="geometry" />
        </mxCell>
        <mxCell id="7zhEitKWnOMPBY1awrK7-45" value="TestPlan/FeatureTag" style="swimlane;fontStyle=0;childLayout=stackLayout;horizontal=1;startSize=26;fillColor=none;horizontalStack=0;resizeParent=1;resizeParentMax=0;resizeLast=0;collapsible=1;marginBottom=0;" parent="1" vertex="1">
          <mxGeometry y="728.14" width="140" height="52" as="geometry" />
        </mxCell>
        <mxCell id="7zhEitKWnOMPBY1awrK7-46" value="name: string" style="text;strokeColor=none;fillColor=none;align=left;verticalAlign=top;spacingLeft=4;spacingRight=4;overflow=hidden;rotatable=0;points=[[0,0.5],[1,0.5]];portConstraint=eastwest;" parent="7zhEitKWnOMPBY1awrK7-45" vertex="1">
          <mxGeometry y="26" width="140" height="26" as="geometry" />
        </mxCell>
        <mxCell id="7zhEitKWnOMPBY1awrK7-47" value="TestImplementationTag" style="swimlane;fontStyle=0;childLayout=stackLayout;horizontal=1;startSize=26;fillColor=none;horizontalStack=0;resizeParent=1;resizeParentMax=0;resizeLast=0;collapsible=1;marginBottom=0;" parent="1" vertex="1">
          <mxGeometry x="689" y="725.14" width="140" height="52" as="geometry" />
        </mxCell>
        <mxCell id="7zhEitKWnOMPBY1awrK7-48" value="name: string" style="text;strokeColor=none;fillColor=none;align=left;verticalAlign=top;spacingLeft=4;spacingRight=4;overflow=hidden;rotatable=0;points=[[0,0.5],[1,0.5]];portConstraint=eastwest;" parent="7zhEitKWnOMPBY1awrK7-47" vertex="1">
          <mxGeometry y="26" width="140" height="26" as="geometry" />
        </mxCell>
        <mxCell id="kd0ojpbWD5Cb26-H-TES-25" style="edgeStyle=orthogonalEdgeStyle;rounded=0;orthogonalLoop=1;jettySize=auto;html=1;entryX=0;entryY=0.5;entryDx=0;entryDy=0;endArrow=none;endFill=0;" parent="1" source="kd0ojpbWD5Cb26-H-TES-21" target="hktTCCk2dDebHr9fmQuZ-60" edge="1">
          <mxGeometry relative="1" as="geometry" />
        </mxCell>
        <mxCell id="kd0ojpbWD5Cb26-H-TES-26" value="0..*" style="edgeLabel;html=1;align=center;verticalAlign=middle;resizable=0;points=[];" parent="kd0ojpbWD5Cb26-H-TES-25" vertex="1" connectable="0">
          <mxGeometry x="-0.7379" y="3" relative="1" as="geometry">
            <mxPoint x="1" y="-10" as="offset" />
          </mxGeometry>
        </mxCell>
        <mxCell id="kd0ojpbWD5Cb26-H-TES-27" value="1..*" style="edgeLabel;html=1;align=center;verticalAlign=middle;resizable=0;points=[];" parent="kd0ojpbWD5Cb26-H-TES-25" vertex="1" connectable="0">
          <mxGeometry x="0.669" y="1" relative="1" as="geometry">
            <mxPoint y="-11" as="offset" />
          </mxGeometry>
        </mxCell>
        <mxCell id="kd0ojpbWD5Cb26-H-TES-21" value="Role" style="swimlane;fontStyle=0;childLayout=stackLayout;horizontal=1;startSize=26;fillColor=none;horizontalStack=0;resizeParent=1;resizeParentMax=0;resizeLast=0;collapsible=1;marginBottom=0;" parent="1" vertex="1">
          <mxGeometry x="853.75" y="-202.5" width="140" height="52" as="geometry" />
        </mxCell>
        <mxCell id="kd0ojpbWD5Cb26-H-TES-22" value="name: string" style="text;strokeColor=none;fillColor=none;align=left;verticalAlign=top;spacingLeft=4;spacingRight=4;overflow=hidden;rotatable=0;points=[[0,0.5],[1,0.5]];portConstraint=eastwest;" parent="kd0ojpbWD5Cb26-H-TES-21" vertex="1">
          <mxGeometry y="26" width="140" height="26" as="geometry" />
        </mxCell>
        <mxCell id="kd0ojpbWD5Cb26-H-TES-29" value="Admin, Developer, Reporter, Tester etc..." style="text;html=1;strokeColor=none;fillColor=none;align=center;verticalAlign=middle;whiteSpace=wrap;rounded=0;" parent="1" vertex="1">
          <mxGeometry x="840" y="-241.5" width="151.25" height="30" as="geometry" />
        </mxCell>
        <mxCell id="Ep67FyL13l04OU5eBn9L-1" style="edgeStyle=orthogonalEdgeStyle;rounded=0;orthogonalLoop=1;jettySize=auto;html=1;endArrow=none;endFill=0;" parent="1" source="Pm2yHPC7wLH_92ZBqZMf-32" target="hktTCCk2dDebHr9fmQuZ-17" edge="1">
          <mxGeometry relative="1" as="geometry">
            <Array as="points" />
          </mxGeometry>
        </mxCell>
        <mxCell id="Ep67FyL13l04OU5eBn9L-4" value="1" style="edgeLabel;html=1;align=center;verticalAlign=middle;resizable=0;points=[];" parent="Ep67FyL13l04OU5eBn9L-1" vertex="1" connectable="0">
          <mxGeometry x="0.887" y="1" relative="1" as="geometry">
            <mxPoint x="9" y="9" as="offset" />
          </mxGeometry>
        </mxCell>
        <mxCell id="Ep67FyL13l04OU5eBn9L-5" value="0..*" style="edgeLabel;html=1;align=center;verticalAlign=middle;resizable=0;points=[];" parent="Ep67FyL13l04OU5eBn9L-1" vertex="1" connectable="0">
          <mxGeometry x="-0.9115" y="1" relative="1" as="geometry">
            <mxPoint x="9" y="-2" as="offset" />
          </mxGeometry>
        </mxCell>
        <mxCell id="Ep67FyL13l04OU5eBn9L-33" style="edgeStyle=orthogonalEdgeStyle;rounded=0;orthogonalLoop=1;jettySize=auto;html=1;entryX=0.5;entryY=0;entryDx=0;entryDy=0;endArrow=none;endFill=0;" parent="1" source="Ep67FyL13l04OU5eBn9L-11" target="hktTCCk2dDebHr9fmQuZ-62" edge="1">
          <mxGeometry relative="1" as="geometry" />
        </mxCell>
        <mxCell id="Ep67FyL13l04OU5eBn9L-37" value="1..*" style="edgeLabel;html=1;align=center;verticalAlign=middle;resizable=0;points=[];" parent="Ep67FyL13l04OU5eBn9L-33" vertex="1" connectable="0">
          <mxGeometry x="-0.8736" y="1" relative="1" as="geometry">
            <mxPoint y="-9" as="offset" />
          </mxGeometry>
        </mxCell>
        <mxCell id="Ep67FyL13l04OU5eBn9L-38" value="1" style="edgeLabel;html=1;align=center;verticalAlign=middle;resizable=0;points=[];" parent="Ep67FyL13l04OU5eBn9L-33" vertex="1" connectable="0">
          <mxGeometry x="0.9078" y="1" relative="1" as="geometry">
            <mxPoint x="9" as="offset" />
          </mxGeometry>
        </mxCell>
        <mxCell id="Ep67FyL13l04OU5eBn9L-34" style="edgeStyle=orthogonalEdgeStyle;rounded=0;orthogonalLoop=1;jettySize=auto;html=1;entryX=0.5;entryY=0;entryDx=0;entryDy=0;endArrow=none;endFill=0;" parent="1" source="Ep67FyL13l04OU5eBn9L-11" target="hktTCCk2dDebHr9fmQuZ-37" edge="1">
          <mxGeometry relative="1" as="geometry" />
        </mxCell>
        <mxCell id="Ep67FyL13l04OU5eBn9L-35" value="1..*" style="edgeLabel;html=1;align=center;verticalAlign=middle;resizable=0;points=[];" parent="Ep67FyL13l04OU5eBn9L-34" vertex="1" connectable="0">
          <mxGeometry x="-0.8715" relative="1" as="geometry">
            <mxPoint y="-10" as="offset" />
          </mxGeometry>
        </mxCell>
        <mxCell id="Ep67FyL13l04OU5eBn9L-36" value="1" style="edgeLabel;html=1;align=center;verticalAlign=middle;resizable=0;points=[];" parent="Ep67FyL13l04OU5eBn9L-34" vertex="1" connectable="0">
          <mxGeometry x="0.8773" y="-1" relative="1" as="geometry">
            <mxPoint x="-9" y="4" as="offset" />
          </mxGeometry>
        </mxCell>
        <mxCell id="Ep67FyL13l04OU5eBn9L-11" value="TestRun" style="swimlane;fontStyle=0;childLayout=stackLayout;horizontal=1;startSize=26;fillColor=none;horizontalStack=0;resizeParent=1;resizeParentMax=0;resizeLast=0;collapsible=1;marginBottom=0;" parent="1" vertex="1">
          <mxGeometry x="1340" y="190" width="180" height="104" as="geometry" />
        </mxCell>
        <mxCell id="Ep67FyL13l04OU5eBn9L-12" value="startDate: DateTime" style="text;strokeColor=none;fillColor=none;align=left;verticalAlign=top;spacingLeft=4;spacingRight=4;overflow=hidden;rotatable=0;points=[[0,0.5],[1,0.5]];portConstraint=eastwest;" parent="Ep67FyL13l04OU5eBn9L-11" vertex="1">
          <mxGeometry y="26" width="180" height="26" as="geometry" />
        </mxCell>
        <mxCell id="Ep67FyL13l04OU5eBn9L-14" value="endDate: DateTime" style="text;strokeColor=none;fillColor=none;align=left;verticalAlign=top;spacingLeft=4;spacingRight=4;overflow=hidden;rotatable=0;points=[[0,0.5],[1,0.5]];portConstraint=eastwest;" parent="Ep67FyL13l04OU5eBn9L-11" vertex="1">
          <mxGeometry y="52" width="180" height="26" as="geometry" />
        </mxCell>
        <mxCell id="Ep67FyL13l04OU5eBn9L-24" value="state: string" style="text;strokeColor=none;fillColor=none;align=left;verticalAlign=top;spacingLeft=4;spacingRight=4;overflow=hidden;rotatable=0;points=[[0,0.5],[1,0.5]];portConstraint=eastwest;" parent="Ep67FyL13l04OU5eBn9L-11" vertex="1">
          <mxGeometry y="78" width="180" height="26" as="geometry" />
        </mxCell>
        <mxCell id="hktTCCk2dDebHr9fmQuZ-37" value="Device" style="swimlane;fontStyle=0;childLayout=stackLayout;horizontal=1;startSize=26;fillColor=none;horizontalStack=0;resizeParent=1;resizeParentMax=0;resizeLast=0;collapsible=1;marginBottom=0;" parent="1" vertex="1">
          <mxGeometry x="1560" y="428" width="140" height="130" as="geometry">
            <mxRectangle x="45" y="115" width="80" height="30" as="alternateBounds" />
          </mxGeometry>
        </mxCell>
        <mxCell id="hktTCCk2dDebHr9fmQuZ-38" value="name: string" style="text;strokeColor=none;fillColor=none;align=left;verticalAlign=top;spacingLeft=4;spacingRight=4;overflow=hidden;rotatable=0;points=[[0,0.5],[1,0.5]];portConstraint=eastwest;" parent="hktTCCk2dDebHr9fmQuZ-37" vertex="1">
          <mxGeometry y="26" width="140" height="26" as="geometry" />
        </mxCell>
        <mxCell id="hktTCCk2dDebHr9fmQuZ-39" value="firmware: string" style="text;strokeColor=none;fillColor=none;align=left;verticalAlign=top;spacingLeft=4;spacingRight=4;overflow=hidden;rotatable=0;points=[[0,0.5],[1,0.5]];portConstraint=eastwest;" parent="hktTCCk2dDebHr9fmQuZ-37" vertex="1">
          <mxGeometry y="52" width="140" height="26" as="geometry" />
        </mxCell>
        <mxCell id="hktTCCk2dDebHr9fmQuZ-40" value="mkCode: string" style="text;strokeColor=none;fillColor=none;align=left;verticalAlign=top;spacingLeft=4;spacingRight=4;overflow=hidden;rotatable=0;points=[[0,0.5],[1,0.5]];portConstraint=eastwest;" parent="hktTCCk2dDebHr9fmQuZ-37" vertex="1">
          <mxGeometry y="78" width="140" height="26" as="geometry" />
        </mxCell>
        <mxCell id="hktTCCk2dDebHr9fmQuZ-41" value="serial: string" style="text;strokeColor=none;fillColor=none;align=left;verticalAlign=top;spacingLeft=4;spacingRight=4;overflow=hidden;rotatable=0;points=[[0,0.5],[1,0.5]];portConstraint=eastwest;" parent="hktTCCk2dDebHr9fmQuZ-37" vertex="1">
          <mxGeometry y="104" width="140" height="26" as="geometry" />
        </mxCell>
        <mxCell id="hktTCCk2dDebHr9fmQuZ-62" value="Result" style="swimlane;fontStyle=0;childLayout=stackLayout;horizontal=1;startSize=26;fillColor=none;horizontalStack=0;resizeParent=1;resizeParentMax=0;resizeLast=0;collapsible=1;marginBottom=0;" parent="1" vertex="1">
          <mxGeometry x="1108.24" y="430.00000000000006" width="140" height="130" as="geometry">
            <mxRectangle x="210" y="128" width="70" height="30" as="alternateBounds" />
          </mxGeometry>
        </mxCell>
        <mxCell id="hktTCCk2dDebHr9fmQuZ-64" value="value: double" style="text;strokeColor=none;fillColor=none;align=left;verticalAlign=top;spacingLeft=4;spacingRight=4;overflow=hidden;rotatable=0;points=[[0,0.5],[1,0.5]];portConstraint=eastwest;" parent="hktTCCk2dDebHr9fmQuZ-62" vertex="1">
          <mxGeometry y="26" width="140" height="26" as="geometry" />
        </mxCell>
        <mxCell id="hktTCCk2dDebHr9fmQuZ-65" value="timestamp: long" style="text;strokeColor=none;fillColor=none;align=left;verticalAlign=top;spacingLeft=4;spacingRight=4;overflow=hidden;rotatable=0;points=[[0,0.5],[1,0.5]];portConstraint=eastwest;" parent="hktTCCk2dDebHr9fmQuZ-62" vertex="1">
          <mxGeometry y="52" width="140" height="26" as="geometry" />
        </mxCell>
        <mxCell id="sDODJVe5ND9CC_0_YRef-5" value="description: string" style="text;strokeColor=none;fillColor=none;align=left;verticalAlign=top;spacingLeft=4;spacingRight=4;overflow=hidden;rotatable=0;points=[[0,0.5],[1,0.5]];portConstraint=eastwest;" parent="hktTCCk2dDebHr9fmQuZ-62" vertex="1">
          <mxGeometry y="78" width="140" height="26" as="geometry" />
        </mxCell>
        <mxCell id="7zhEitKWnOMPBY1awrK7-22" value="result: bool" style="text;strokeColor=none;fillColor=none;align=left;verticalAlign=top;spacingLeft=4;spacingRight=4;overflow=hidden;rotatable=0;points=[[0,0.5],[1,0.5]];portConstraint=eastwest;" parent="hktTCCk2dDebHr9fmQuZ-62" vertex="1">
          <mxGeometry y="104" width="140" height="26" as="geometry" />
        </mxCell>
        <mxCell id="Ep67FyL13l04OU5eBn9L-45" value="&lt;blockquote style=&quot;margin: 0 0 0 40px; border: none; padding: 0px;&quot;&gt;&lt;span style=&quot;background-color: initial;&quot;&gt;Reporter:&lt;/span&gt;&lt;/blockquote&gt;&lt;ul&gt;&lt;li&gt;&lt;span style=&quot;background-color: initial;&quot;&gt;will zu testende featrues definieren&lt;/span&gt;&lt;/li&gt;&lt;li&gt;&lt;span style=&quot;background-color: initial;&quot;&gt;features zu einer environment/platform zuordnen&lt;/span&gt;&lt;/li&gt;&lt;li&gt;&lt;span style=&quot;background-color: initial;&quot;&gt;testcases beschreiben&lt;/span&gt;&lt;/li&gt;&lt;/ul&gt;" style="text;html=1;align=left;verticalAlign=middle;resizable=0;points=[];autosize=1;strokeColor=none;fillColor=none;" parent="1" vertex="1">
          <mxGeometry x="1910" y="-84.5" width="320" height="100" as="geometry" />
        </mxCell>
        <mxCell id="Ep67FyL13l04OU5eBn9L-47" value="&lt;blockquote style=&quot;margin: 0 0 0 40px; border: none; padding: 0px;&quot;&gt;&lt;span style=&quot;background-color: initial;&quot;&gt;Test developer:&lt;/span&gt;&lt;/blockquote&gt;&lt;ul&gt;&lt;li&gt;will Test Cases für eine bestimmte Plattform implementieren&lt;/li&gt;&lt;li&gt;&lt;span style=&quot;background-color: initial;&quot;&gt;im Automatisierungssystem Test&amp;nbsp;Läufe&amp;nbsp;erstellen&lt;/span&gt;&lt;/li&gt;&lt;li&gt;&lt;span style=&quot;background-color: initial;&quot;&gt;Test Implementierungen&amp;nbsp;für nicht automatisierte Test Cases&amp;nbsp;definieren&lt;/span&gt;&lt;/li&gt;&lt;li&gt;und mit Test Implementierung verknüpfen&lt;/li&gt;&lt;/ul&gt;" style="text;html=1;align=left;verticalAlign=middle;resizable=0;points=[];autosize=1;strokeColor=none;fillColor=none;" parent="1" vertex="1">
          <mxGeometry x="1910" y="15.5" width="430" height="110" as="geometry" />
        </mxCell>
        <mxCell id="Ep67FyL13l04OU5eBn9L-48" value="&lt;blockquote style=&quot;margin: 0 0 0 40px; border: none; padding: 0px;&quot;&gt;&lt;span style=&quot;background-color: initial;&quot;&gt;Tester:&lt;/span&gt;&lt;/blockquote&gt;&lt;ul&gt;&lt;li&gt;will manuelle Tests für definierten Test Implementierungen durchführen&lt;/li&gt;&lt;li&gt;manuelle Testlaufe und Testresultate erstellen&amp;nbsp;&lt;/li&gt;&lt;/ul&gt;" style="text;html=1;align=left;verticalAlign=middle;resizable=0;points=[];autosize=1;strokeColor=none;fillColor=none;" parent="1" vertex="1">
          <mxGeometry x="1910" y="125.5" width="440" height="80" as="geometry" />
        </mxCell>
        <mxCell id="Ep67FyL13l04OU5eBn9L-49" value="&lt;blockquote style=&quot;margin: 0 0 0 40px; border: none; padding: 0px;&quot;&gt;&lt;span style=&quot;background-color: initial;&quot;&gt;Product owner:&lt;/span&gt;&lt;/blockquote&gt;&lt;ul&gt;&lt;li&gt;will prüfen ob bestimmtes Produkt/Environment alle Test Cases implementiert sind&lt;/li&gt;&lt;li&gt;prüfen ob alle Testläufe erfolgreich abgeschlossen worden sind&lt;/li&gt;&lt;/ul&gt;" style="text;html=1;align=left;verticalAlign=middle;resizable=0;points=[];autosize=1;strokeColor=none;fillColor=none;" parent="1" vertex="1">
          <mxGeometry x="1910" y="215.5" width="500" height="80" as="geometry" />
        </mxCell>
        <mxCell id="Ep67FyL13l04OU5eBn9L-50" value="&lt;blockquote style=&quot;margin: 0 0 0 40px; border: none; padding: 0px;&quot;&gt;&lt;span style=&quot;background-color: initial;&quot;&gt;Qualitymanager:&lt;/span&gt;&lt;/blockquote&gt;&lt;ul&gt;&lt;li&gt;will prüfen ob sich bei einem bestimmten Test Case an einem bestimmten Environment die Resultate über die Zeit verändert worden sind.&lt;/li&gt;&lt;li&gt;prüfen bei einer bestimmten Environment manchmal fehlerhafte Resultate aufgetreten sind&lt;/li&gt;&lt;/ul&gt;" style="text;html=1;align=left;verticalAlign=middle;resizable=0;points=[];autosize=1;strokeColor=none;fillColor=none;" parent="1" vertex="1">
          <mxGeometry x="1910" y="295.5" width="790" height="80" as="geometry" />
        </mxCell>
        <mxCell id="Ep67FyL13l04OU5eBn9L-51" value="&lt;blockquote style=&quot;margin: 0 0 0 40px; border: none; padding: 0px;&quot;&gt;&lt;span style=&quot;background-color: initial;&quot;&gt;Automatisierungssystem:&lt;/span&gt;&lt;/blockquote&gt;&lt;ul&gt;&lt;li&gt;erstellt neue Testläufe, entweder geplant oder manuell angestoßen.&lt;/li&gt;&lt;li&gt;arbeitet alle automatischen Test Abläufe ab.&lt;/li&gt;&lt;li&gt;und sendet dazugehörige Resultate für Test Implementierungen&lt;/li&gt;&lt;/ul&gt;" style="text;html=1;align=left;verticalAlign=middle;resizable=0;points=[];autosize=1;strokeColor=none;fillColor=none;" parent="1" vertex="1">
          <mxGeometry x="1910" y="375.5" width="420" height="100" as="geometry" />
        </mxCell>
        <mxCell id="Ep67FyL13l04OU5eBn9L-52" value="&lt;blockquote style=&quot;margin: 0 0 0 40px; border: none; padding: 0px;&quot;&gt;&lt;span style=&quot;background-color: initial;&quot;&gt;Support/Reporter:&lt;/span&gt;&lt;/blockquote&gt;&lt;ul&gt;&lt;li&gt;will wissen ob ein bestimmtes feature für einen bestimmte Environment Version mit ausreichend Tests abgedeckt ist.&lt;/li&gt;&lt;li&gt;und ob die Testläufe erfolgreich waren.&lt;/li&gt;&lt;/ul&gt;" style="text;html=1;align=left;verticalAlign=middle;resizable=0;points=[];autosize=1;strokeColor=none;fillColor=none;" parent="1" vertex="1">
          <mxGeometry x="1910" y="475.5" width="680" height="80" as="geometry" />
        </mxCell>
        <mxCell id="Ep67FyL13l04OU5eBn9L-53" value="&lt;blockquote style=&quot;margin: 0 0 0 40px; border: none; padding: 0px;&quot;&gt;&lt;span style=&quot;background-color: initial;&quot;&gt;Sales:&lt;/span&gt;&lt;/blockquote&gt;&lt;ul&gt;&lt;li&gt;will wissen ob ein bestimmtes feature für einen bestimmte Environment Version getestet und Release bereit ist.&lt;/li&gt;&lt;/ul&gt;" style="text;html=1;align=left;verticalAlign=middle;resizable=0;points=[];autosize=1;strokeColor=none;fillColor=none;" parent="1" vertex="1">
          <mxGeometry x="1910" y="551.5" width="650" height="70" as="geometry" />
        </mxCell>
        <mxCell id="Ep67FyL13l04OU5eBn9L-54" value="&lt;font style=&quot;font-size: 24px;&quot;&gt;Anforderungen/Usecases&lt;/font&gt;" style="text;html=1;align=center;verticalAlign=middle;resizable=0;points=[];autosize=1;strokeColor=none;fillColor=none;" parent="1" vertex="1">
          <mxGeometry x="1925" y="-137.5" width="290" height="40" as="geometry" />
        </mxCell>
        <mxCell id="Pm2yHPC7wLH_92ZBqZMf-2" value="Environment/Platform:&lt;br&gt;Qstation" style="text;html=1;align=center;verticalAlign=middle;resizable=0;points=[];autosize=1;strokeColor=none;fillColor=none;" parent="1" vertex="1">
          <mxGeometry x="-15" y="-230" width="140" height="40" as="geometry" />
        </mxCell>
        <mxCell id="Pm2yHPC7wLH_92ZBqZMf-3" value="Feature:&lt;br&gt;ControllerSetting/Netzwerk" style="text;html=1;align=center;verticalAlign=middle;resizable=0;points=[];autosize=1;strokeColor=none;fillColor=none;" parent="1" vertex="1">
          <mxGeometry x="-30" y="-169.5" width="170" height="40" as="geometry" />
        </mxCell>
        <mxCell id="Pm2yHPC7wLH_92ZBqZMf-4" value="Testcase:&lt;br&gt;dhcp adresse erhalten" style="text;html=1;align=center;verticalAlign=middle;resizable=0;points=[];autosize=1;strokeColor=none;fillColor=none;" parent="1" vertex="1">
          <mxGeometry x="-170" y="-110" width="140" height="40" as="geometry" />
        </mxCell>
        <mxCell id="Pm2yHPC7wLH_92ZBqZMf-5" value="Testcase:&lt;br&gt;dns auflösung funktioniert" style="text;html=1;align=center;verticalAlign=middle;resizable=0;points=[];autosize=1;strokeColor=none;fillColor=none;" parent="1" vertex="1">
          <mxGeometry x="-15" y="-110" width="160" height="40" as="geometry" />
        </mxCell>
        <mxCell id="Pm2yHPC7wLH_92ZBqZMf-6" value="Testcase:&lt;br&gt;ping funktioniert" style="text;html=1;align=center;verticalAlign=middle;resizable=0;points=[];autosize=1;strokeColor=none;fillColor=none;" parent="1" vertex="1">
          <mxGeometry x="145" y="-110" width="110" height="40" as="geometry" />
        </mxCell>
        <mxCell id="Pm2yHPC7wLH_92ZBqZMf-7" value=".............." style="text;html=1;align=center;verticalAlign=middle;resizable=0;points=[];autosize=1;strokeColor=none;fillColor=none;strokeWidth=1;fontSize=24;" parent="1" vertex="1">
          <mxGeometry x="250" y="-110" width="120" height="40" as="geometry" />
        </mxCell>
        <mxCell id="Pm2yHPC7wLH_92ZBqZMf-12" value="TCMS sends testrun id after the init of the testrun from automise" style="text;html=1;strokeColor=none;fillColor=none;align=center;verticalAlign=middle;whiteSpace=wrap;rounded=0;" parent="1" vertex="1">
          <mxGeometry x="1191" y="125.5" width="440" height="30" as="geometry" />
        </mxCell>
        <mxCell id="Pm2yHPC7wLH_92ZBqZMf-14" value="Mapping from test implementtion id to result" style="shape=note;size=20;whiteSpace=wrap;html=1;" parent="1" vertex="1">
          <mxGeometry x="1191" y="284" width="100" height="100" as="geometry" />
        </mxCell>
        <mxCell id="Pm2yHPC7wLH_92ZBqZMf-22" value="Automise decides if result will be saved or not" style="shape=note;size=20;whiteSpace=wrap;html=1;" parent="1" vertex="1">
          <mxGeometry x="1068.75" y="285.5" width="100" height="100" as="geometry" />
        </mxCell>
        <mxCell id="Pm2yHPC7wLH_92ZBqZMf-25" value="Automise sets lastTestRunId and Success" style="shape=note;size=20;whiteSpace=wrap;html=1;" parent="1" vertex="1">
          <mxGeometry x="870" y="433" width="100" height="100" as="geometry" />
        </mxCell>
        <mxCell id="Pm2yHPC7wLH_92ZBqZMf-32" value="Testsystem" style="swimlane;fontStyle=0;childLayout=stackLayout;horizontal=1;startSize=26;fillColor=none;horizontalStack=0;resizeParent=1;resizeParentMax=0;resizeLast=0;collapsible=1;marginBottom=0;whiteSpace=wrap;html=1;" parent="1" vertex="1">
          <mxGeometry x="689" y="43" width="140" height="78" as="geometry" />
        </mxCell>
        <mxCell id="Pm2yHPC7wLH_92ZBqZMf-33" value="name: string" style="text;strokeColor=none;fillColor=none;align=left;verticalAlign=top;spacingLeft=4;spacingRight=4;overflow=hidden;rotatable=0;points=[[0,0.5],[1,0.5]];portConstraint=eastwest;whiteSpace=wrap;html=1;" parent="Pm2yHPC7wLH_92ZBqZMf-32" vertex="1">
          <mxGeometry y="26" width="140" height="26" as="geometry" />
        </mxCell>
        <mxCell id="yFreeThX6sl7toocLRWk-1" value="description: string" style="text;strokeColor=none;fillColor=none;align=left;verticalAlign=top;spacingLeft=4;spacingRight=4;overflow=hidden;rotatable=0;points=[[0,0.5],[1,0.5]];portConstraint=eastwest;" parent="Pm2yHPC7wLH_92ZBqZMf-32" vertex="1">
          <mxGeometry y="52" width="140" height="26" as="geometry" />
        </mxCell>
        <mxCell id="Pm2yHPC7wLH_92ZBqZMf-42" value="" style="endArrow=none;html=1;rounded=0;entryX=0.5;entryY=0;entryDx=0;entryDy=0;exitX=1;exitY=0.5;exitDx=0;exitDy=0;" parent="1" source="Pm2yHPC7wLH_92ZBqZMf-32" target="Ep67FyL13l04OU5eBn9L-11" edge="1">
          <mxGeometry width="50" height="50" relative="1" as="geometry">
            <mxPoint x="1070" y="80" as="sourcePoint" />
            <mxPoint x="1200" y="90" as="targetPoint" />
            <Array as="points">
              <mxPoint x="1430" y="80" />
            </Array>
          </mxGeometry>
        </mxCell>
        <mxCell id="Pm2yHPC7wLH_92ZBqZMf-43" value="0..*" style="edgeLabel;html=1;align=center;verticalAlign=middle;resizable=0;points=[];" parent="Pm2yHPC7wLH_92ZBqZMf-42" vertex="1" connectable="0">
          <mxGeometry x="-0.8952" y="1" relative="1" as="geometry">
            <mxPoint x="-24" y="-11" as="offset" />
          </mxGeometry>
        </mxCell>
        <mxCell id="Pm2yHPC7wLH_92ZBqZMf-44" value="1" style="edgeLabel;html=1;align=center;verticalAlign=middle;resizable=0;points=[];" parent="Pm2yHPC7wLH_92ZBqZMf-42" vertex="1" connectable="0">
          <mxGeometry x="0.9279" relative="1" as="geometry">
            <mxPoint x="10" as="offset" />
          </mxGeometry>
        </mxCell>
        <mxCell id="Pm2yHPC7wLH_92ZBqZMf-47" value="" style="endArrow=none;dashed=1;html=1;dashPattern=1 3;strokeWidth=5;rounded=0;fontSize=10;" parent="1" edge="1">
          <mxGeometry width="50" height="50" relative="1" as="geometry">
            <mxPoint x="1021.25" y="815.5" as="sourcePoint" />
            <mxPoint x="1021.25" y="-34.5" as="targetPoint" />
          </mxGeometry>
        </mxCell>
        <mxCell id="Pm2yHPC7wLH_92ZBqZMf-48" value="TestsystemId database id for automise" style="text;html=1;strokeColor=none;fillColor=none;align=center;verticalAlign=middle;whiteSpace=wrap;rounded=0;" parent="1" vertex="1">
          <mxGeometry x="537" y="15.5" width="440" height="30" as="geometry" />
        </mxCell>
        <mxCell id="CzgxfFNAiLdV66VBEmGh-1" value="Pruefwand_Qstation&lt;br&gt;Pruefwand_Qcore" style="text;html=1;align=center;verticalAlign=middle;resizable=0;points=[];autosize=1;strokeColor=none;fillColor=none;" parent="1" vertex="1">
          <mxGeometry x="695" y="-50" width="130" height="40" as="geometry" />
        </mxCell>
      </root>
    </mxGraphModel>
  </diagram>
</mxfile>
